<svg width="312" height="70" viewBox="0 0 312 70" fill="none" xmlns="http://www.w3.org/2000/svg">
<path d="M0.249024 69V0.75H22.874L38.624 51.25H38.999L55.374 0.75H77.749V69H62.249V37.75C62.249 35.5833 62.2907 33.1667 62.374 30.5C62.4574 27.75 62.5407 25.1667 62.624 22.75C62.7907 20.3333 62.9157 18.5417 62.999 17.375H62.624L46.124 69H30.499L14.624 17.25H14.124C14.2907 18.4167 14.4574 20.2083 14.624 22.625C14.7907 25.0417 14.9157 27.6667 14.999 30.5C15.1657 33.25 15.249 35.7917 15.249 38.125V69H0.249024Z" fill="#FC8587"/>
<path d="M158.341 43.5C158.341 48.6667 157.257 53.25 155.091 57.25C152.924 61.25 149.632 64.375 145.216 66.625C140.799 68.875 135.257 70 128.591 70C122.257 70 116.924 68.9583 112.591 66.875C108.257 64.7083 104.966 61.6667 102.716 57.75C100.549 53.75 99.4658 49.0417 99.4658 43.625V0.75H116.341V41.625C116.341 46.9583 117.382 50.75 119.466 53C121.632 55.25 124.757 56.375 128.841 56.375C133.341 56.375 136.591 55.2083 138.591 52.875C140.591 50.4583 141.591 46.7083 141.591 41.625V0.75H158.341V43.5Z" fill="#FFCA6E"/>
<path d="M223.682 27.3629V42.2333H188.082V27.3629H223.682ZM194.296 0.81818V69H176.23V0.81818H194.296ZM235.534 0.81818V69H217.6V0.81818H235.534Z" fill="#86CDDB"/>
<path d="M311.783 43.5C311.783 48.6667 310.7 53.25 308.533 57.25C306.367 61.25 303.075 64.375 298.658 66.625C294.242 68.875 288.7 70 282.033 70C275.7 70 270.367 68.9583 266.033 66.875C261.7 64.7083 258.408 61.6667 256.158 57.75C253.992 53.75 252.908 49.0417 252.908 43.625V0.75H269.783V41.625C269.783 46.9583 270.825 50.75 272.908 53C275.075 55.25 278.2 56.375 282.283 56.375C286.783 56.375 290.033 55.2083 292.033 52.875C294.033 50.4583 295.033 46.7083 295.033 41.625V0.75H311.783V43.5Z" fill="#F3AD34"/>
</svg>
